{"title":"Thick.As.Thieves.2009.1080p.BRRip.x264.Hun.Eng","uid":11823565,"size":9487234827,"categoryP":"video","categoryS":"hd___movies","magnet":"?xt=urn:btih:8038bc0dca9eb13fabb4110c862ca2b6eabc0d19&amp;dn=Thick.As.Thieves.2009.1080p.BRRip.x264.Hun.Eng&amp;tr=udp%3A%2F%2Ftracker.openbittorrent.com%3A80&amp;tr=udp%3A%2F%2Fopen.demonii.com%3A1337&amp;tr=udp%3A%2F%2Ftracker.coppersurfer.tk%3A6969&amp;tr=udp%3A%2F%2Fexodus.desync.com%3A6969","seeders":0,"leechers":1,"uploader":"rinoceros","files":1,"time":1429381175,"description":"Thick.As.Thieves.2009.1080p.BRRip.x264.Hun.Eng\n\nGeneral\nUnique ID                                : 208227661757311718840304780731547268583 (0x9CA7305BEF51C33FB1CD18676A2235E7)\nComplete name                            : F:1080pThick.As.Thieves.2009.1080p.BRRip.x264.Hun.EngThick As Thieves (2009) 1080p.mkv\nFormat                                   : Matroska\nFormat version                           : Version 4 / Version 2\nFile size                                : 8.84 GiB\nDuration                                 : 1h 43mn\nOverall bit rate                         : 12.2 Mbps\nEncoded date                             : UTC 2015-04-18 15:52:12\nWriting application                      : mkvmerge v7.8.0 ('River Man') 64bit built on Mar 27 2015 16:31:37\nWriting library                          : libebml v1.3.1 + libmatroska v1.4.2\nDURATION                                 : 01:33:30.945000000\nNUMBER_OF_FRAMES                         : 1076\nNUMBER_OF_BYTES                          : 36272\n_STATISTICS_WRITING_APP                  : mkvmerge v7.8.0 ('River Man') 64bit built on Mar 27 2015 16:31:37\n_STATISTICS_WRITING_DATE_UTC             : 2015-04-18 15:52:12\n_STATISTICS_TAGS                         : BPS DURATION NUMBER_OF_FRAMES NUMBER_OF_BYTES\n\nVideo\nID                                       : 1\nFormat                                   : AVC\nFormat/Info                              : Advanced Video Codec\nFormat profile                           : &lt;a class=&quot;__cf_email__&quot; href=&quot;/cdn-cgi/l/email-protection&quot; data-cfemail=&quot;5810313f3018146c7669&quot;&gt;[email&amp;#160;protected]&lt;/a&gt;&lt;script cf-hash='f9e31' type=&quot;text/javascript&quot;&gt;\n/* &lt;![CDATA[ */!function(){try{var t=&quot;currentScript&quot;in document?document.currentScript:function(){for(var t=document.getElementsByTagName(&quot;script&quot;),e=t.length;e--;)if(t[e].getAttribute(&quot;cf-hash&quot;))return t[e]}();if(t&amp;&amp;t.previousSibling){var e,r,n,i,c=t.previousSibling,a=c.getAttribute(&quot;data-cfemail&quot;);if(a){for(e=&quot;&quot;,r=parseInt(a.substr(0,2),16),n=2;a.length-n;n+=2)i=parseInt(a.substr(n,2),16)^r,e+=String.fromCharCode(i);e=document.createTextNode(e),c.parentNode.replaceChild(e,c)}}}catch(u){}}();/* ]]&gt; */&lt;/script&gt;\nFormat settings, CABAC                   : Yes\nFormat settings, ReFrames                : 4 frames\nCodec ID                                 : V_MPEG4/ISO/AVC\nDuration                                 : 1h 43mn\nBit rate                                 : 10.5 Mbps\nWidth                                    : 1 920 pixels\nHeight                                   : 816 pixels\nDisplay aspect ratio                     : 2.35:1\nFrame rate mode                          : Constant\nFrame rate                               : 23.976 fps\nColor space                              : YUV\nChroma subsampling                       : 4:2:0\nBit depth                                : 8 bits\nScan type                                : Progressive\nBits/(Pixel*Frame)                       : 0.280\nStream size                              : 7.43 GiB (84%)\nTitle                                    : Thick As Thieves aka The Code (2009) 1080p\nWriting library                          : x264 core 67 r1128M 682b54d\nEncoding settings                        : cabac=1 / ref=4 / deblock=1:-2:-1 / analyse=0x3:0x113 / me=umh / subme=7 / psy_rd=1.0:0.0 / mixed_ref=1 / me_range=16 / chroma_me=1 / trellis=1 / 8x8dct=1 / cqm=0 / deadzone=21,11 / chroma_qp_offset=-2 / threads=6 / nr=0 / decimate=1 / mbaff=0 / bframes=16 / b_pyramid=1 / b_adapt=1 / b_bias=0 / direct=3 / wpredb=1 / keyint=250 / keyint_min=25 / scenecut=40 / rc=2pass / bitrate=10523 / ratetol=1.0 / qcomp=0.60 / qpmin=10 / qpmax=51 / qpstep=4 / cplxblur=20.0 / qblur=0.5 / ip_ratio=1.40 / pb_ratio=1.30 / aq=1:1.00\nDefault                                  : Yes\nForced                                   : No\nDURATION                                 : 01:43:28.129000000\nNUMBER_OF_FRAMES                         : 148846\nNUMBER_OF_BYTES                          : 8165289857\n_STATISTICS_WRITING_APP                  : mkvmerge v7.8.0 ('River Man') 64bit built on Mar 27 2015 16:31:37\n_STATISTICS_WRITING_DATE_UTC             : 2015-04-18 15:52:12\n_STATISTICS_TAGS                         : BPS DURATION NUMBER_OF_FRAMES NUMBER_OF_BYTES\n\nAudio #1\nID                                       : 2\nFormat                                   : AC-3\nFormat/Info                              : Audio Coding 3\nMode extension                           : CM (complete main)\nFormat settings, Endianness              : Big\nCodec ID                                 : A_AC3\nDuration                                 : 1h 43mn\nBit rate mode                            : Constant\nBit rate                                 : 192 Kbps\nChannel(s)                               : 2 channels\nChannel positions                        : Front: L R\nSampling rate                            : 48.0 KHz\nBit depth                                : 16 bits\nCompression mode                         : Lossy\nStream size                              : 142 MiB (2%)\nTitle                                    : 2.0\nLanguage                                 : Hungarian\nDefault                                  : Yes\nForced                                   : No\n\nAudio #2\nID                                       : 3\nFormat                                   : DTS\nFormat/Info                              : Digital Theater Systems\nMode                                     : 16\nFormat settings, Endianness              : Big\nCodec ID                                 : A_DTS\nDuration                                 : 1h 43mn\nBit rate mode                            : Constant\nBit rate                                 : 1 509 Kbps\nChannel(s)                               : 6 channels\nChannel positions                        : Front: L C R, Side: L R, LFE\nSampling rate                            : 48.0 KHz\nBit depth                                : 16 bits\nCompression mode                         : Lossy\nStream size                              : 1.09 GiB (12%)\nTitle                                    : DTS 5.1\nLanguage                                 : English\nDefault                                  : No\nForced                                   : No\n\nText #1\nID                                       : 4\nFormat                                   : UTF-8\nCodec ID                                 : S_TEXT/UTF8\nCodec ID/Info                            : UTF-8 Plain Text\nTitle                                    : forced\nLanguage                                 : Hungarian\nDefault                                  : Yes\nForced                                   : Yes\n\nText #2\nID                                       : 5\nFormat                                   : UTF-8\nCodec ID                                 : S_TEXT/UTF8\nCodec ID/Info                            : UTF-8 Plain Text\nTitle                                    : full\nLanguage                                 : Hungarian\nDefault                                  : No\nForced                                   : No\n\nText #3\nID                                       : 6\nFormat                                   : UTF-8\nCodec ID                                 : S_TEXT/UTF8\nCodec ID/Info                            : UTF-8 Plain Text\nTitle                                    : full\nLanguage                                 : English\nDefault                                  : No\nForced                                   : No\n &lt;a href=&quot;\nhttp://www.port.hu/a_kod_thick_as_thieves/pls/fi/films.film_page?i_where=2&amp;i_film_id=98311&amp;i_city_id=-1&amp;i_county_id=-1&amp;i_topic_id=2&quot; rel=&quot;nofollow&quot; target=&quot;_NEW&quot;&gt;\nhttp://www.port.hu/a_kod_thick_as_thieves/pls/fi/films.film_page?i_where=2&amp;i_film_id=98311&amp;i_city_id=-1&amp;i_county_id=-1&amp;i_topic_id=2&lt;/a&gt;","torrent":{"xt":"urn:btih:8038bc0dca9eb13fabb4110c862ca2b6eabc0d19","amp;dn":"Thick.As.Thieves.2009.1080p.BRRip.x264.Hun.Eng","amp;tr":["udp%3A%2F%2Ftracker.openbittorrent.com%3A80","udp%3A%2F%2Fopen.demonii.com%3A1337","udp%3A%2F%2Ftracker.coppersurfer.tk%3A6969","udp%3A%2F%2Fexodus.desync.com%3A6969"],"infoHash":"8038bc0dca9eb13fabb4110c862ca2b6eabc0d19","infoHashBuffer":{"type":"Buffer","data":[128,56,188,13,202,158,177,63,171,180,17,12,134,44,162,182,234,188,13,25]},"announce":[],"urlList":[]}}